<?xml version="1.0" standalone="no"?>
<!DOCTYPE svg PUBLIC "-//W3C//DTD SVG 20010904//EN"
 "http://www.w3.org/TR/2001/REC-SVG-20010904/DTD/svg10.dtd">
<svg version="1.0" xmlns="http://www.w3.org/2000/svg"
 width="915.000000pt" height="915.000000pt" viewBox="0 0 915.000000 915.000000"
 preserveAspectRatio="xMidYMid meet">
<metadata>
Created by potrace 1.14, written by Peter Selinger 2001-2017
</metadata>
<g transform="translate(0.000000,915.000000) scale(0.100000,-0.100000)"
fill="#000000" stroke="none">
<path d="M4318 9145 c-2 -1 -46 -5 -98 -9 -52 -4 -106 -8 -120 -11 -14 -2 -47
-6 -75 -9 -90 -10 -140 -17 -165 -22 -14 -3 -38 -7 -55 -9 -16 -3 -43 -8 -60
-11 -16 -4 -37 -8 -45 -9 -8 -1 -40 -7 -70 -14 -30 -6 -64 -13 -75 -15 -185
-36 -573 -164 -805 -266 -101 -44 -342 -161 -350 -170 -3 -3 -19 -12 -35 -21
-83 -43 -227 -130 -243 -145 -7 -8 -18 -14 -23 -14 -8 0 -65 -36 -79 -50 -3
-3 -39 -27 -80 -55 -41 -27 -79 -55 -85 -61 -5 -5 -28 -23 -50 -39 -22 -16
-44 -33 -50 -37 -31 -23 -227 -190 -269 -228 -65 -60 -276 -270 -271 -270 2 0
-13 -18 -34 -39 -21 -21 -57 -63 -82 -92 -24 -29 -52 -61 -61 -71 -10 -10 -18
-21 -18 -24 0 -3 -8 -13 -17 -22 -26 -26 -173 -226 -240 -327 -111 -168 -210
-342 -299 -525 -25 -52 -54 -111 -64 -130 -10 -19 -21 -46 -25 -60 -4 -14 -20
-52 -35 -85 -24 -53 -163 -446 -160 -453 1 -1 -6 -28 -15 -60 -10 -31 -19 -65
-21 -74 -2 -10 -6 -26 -8 -35 -45 -188 -88 -422 -101 -553 -3 -30 -8 -64 -10
-75 -19 -96 -27 -648 -12 -830 11 -128 22 -232 32 -285 2 -14 7 -43 10 -65 11
-77 17 -111 42 -230 14 -66 26 -124 27 -130 1 -5 5 -19 9 -30 3 -11 8 -31 11
-45 3 -14 12 -50 21 -80 9 -30 18 -64 20 -75 3 -12 14 -48 25 -80 11 -33 22
-67 24 -75 6 -24 75 -213 86 -235 5 -11 18 -43 29 -71 68 -176 313 -649 343
-662 5 -2 8 -8 8 -14 0 -5 10 -24 23 -41 12 -17 27 -39 32 -49 13 -22 108
-161 115 -168 3 -3 32 -41 65 -85 32 -44 73 -96 90 -116 16 -20 50 -60 75 -89
191 -228 476 -495 729 -684 53 -39 98 -73 101 -76 20 -22 373 -240 440 -273
14 -6 27 -14 30 -17 8 -9 248 -125 346 -168 120 -53 330 -134 384 -147 3 -1
12 -4 20 -8 115 -44 511 -142 657 -162 15 -2 57 -8 93 -14 36 -5 89 -13 119
-16 30 -4 63 -8 73 -10 131 -26 738 -26 953 -1 17 2 59 7 95 11 36 4 74 9 85
11 11 2 38 7 60 9 148 18 612 130 715 172 8 4 17 7 20 8 25 6 154 52 190 67
25 11 52 21 60 23 59 13 559 257 568 278 2 4 8 7 13 7 6 0 47 23 92 51 45 28
91 56 102 62 11 7 22 14 25 18 3 3 23 16 45 29 22 13 45 28 50 32 6 5 57 43
115 85 203 147 350 274 544 469 56 56 128 132 161 169 33 38 69 79 81 92 11
12 29 34 40 49 10 15 26 34 35 43 8 9 29 34 45 56 16 22 31 42 34 45 4 3 22
28 41 55 18 28 37 52 40 55 7 5 184 278 208 320 87 152 125 222 173 320 61
127 158 352 178 415 7 22 17 46 23 52 5 7 7 13 4 13 -3 0 1 17 9 37 9 20 18
44 20 52 2 9 19 67 39 128 19 62 36 123 39 135 2 13 9 36 15 52 7 16 9 31 6
34 -2 3 0 11 6 19 6 7 9 13 6 13 -3 0 -1 15 4 33 5 17 12 46 15 62 3 17 7 35
8 40 3 10 12 60 20 105 3 14 7 34 9 45 3 11 8 42 11 68 4 27 9 58 11 69 2 11
7 45 10 76 3 31 7 71 9 87 28 221 28 743 1 970 -10 82 -50 346 -61 397 -33
159 -69 301 -109 433 -51 166 -65 208 -93 275 -5 14 -20 52 -33 85 -52 139
-219 492 -268 565 -9 14 -26 43 -36 65 -11 22 -26 46 -33 53 -7 8 -20 28 -29
45 -21 42 -187 287 -213 315 -11 12 -20 24 -20 28 0 3 -19 29 -42 58 -24 28
-47 56 -53 63 -5 7 -21 26 -35 44 -110 137 -317 353 -464 484 -43 39 -89 79
-102 90 -12 12 -37 32 -55 45 -28 22 -128 101 -169 133 -8 7 -58 42 -110 77
-52 36 -97 68 -100 71 -7 7 -231 145 -250 152 -8 4 -37 20 -65 37 -201 121
-585 283 -886 374 -115 34 -352 94 -444 111 -16 3 -41 8 -55 11 -30 6 -45 8
-235 34 -82 11 -175 23 -205 26 -60 5 -637 14 -642 9z"/>
</g>
</svg>
